<?xml version="1.0" standalone="no"?>
<!DOCTYPE svg PUBLIC "-//W3C//DTD SVG 20010904//EN"
 "http://www.w3.org/TR/2001/REC-SVG-20010904/DTD/svg10.dtd">
<svg version="1.0" xmlns="http://www.w3.org/2000/svg"
 width="512.000000pt" height="512.000000pt" viewBox="0 0 512.000000 512.000000"
 preserveAspectRatio="xMidYMid meet">
<metadata>
Created by potrace 1.11, written by Peter Selinger 2001-2013
</metadata>
<g transform="translate(0.000000,512.000000) scale(0.100000,-0.100000)"
fill="#000000" stroke="none">
<path d="M1960 4468 c-250 -29 -281 -34 -274 -53 6 -13 -5 -18 -63 -30 -18 -4
-33 -10 -33 -13 1 -17 18 -30 50 -37 60 -12 79 -30 75 -70 -2 -19 1 -35 6 -35
5 0 9 -4 9 -10 0 -5 -7 -10 -16 -10 -9 0 -14 -6 -11 -12 2 -7 10 -12 16 -10 7
1 2 -11 -11 -28 -36 -49 -26 -189 15 -212 43 -23 45 -22 103 88 12 22 32 38
70 54 30 12 54 25 54 30 0 9 47 41 64 44 6 1 21 7 33 14 12 7 29 12 37 12 11
0 16 9 16 30 0 19 9 38 24 51 14 12 22 28 19 39 -3 10 0 21 6 24 6 4 8 18 5
31 -5 20 0 26 30 39 36 15 45 29 26 41 -5 3 -10 2 -10 -4 0 -5 -21 0 -47 11
-53 24 -97 27 -193 16z"/>
<path d="M1585 4458 c-71 -11 -137 -20 -155 -22 -8 0 -26 -9 -40 -19 -20 -14
-23 -20 -13 -35 6 -9 16 -16 22 -14 6 1 11 -2 11 -6 0 -13 -64 -34 -68 -22 -2
5 -13 10 -24 10 -13 0 -18 -5 -15 -14 10 -25 -7 -28 -25 -4 -17 23 -17 23 -32
3 -17 -24 -17 -25 27 -35 30 -6 37 -4 45 14 8 16 11 17 11 4 1 -21 47 -32 95
-22 63 11 50 31 -16 26 -10 -1 -18 2 -18 7 0 11 56 20 71 10 12 -7 79 25 90
43 3 5 46 25 94 43 l88 33 -49 3 c-27 2 -71 1 -99 -3z"/>
<path d="M1166 4381 c-11 -12 -17 -23 -14 -26 8 -9 41 21 37 34 -3 9 -11 6
-23 -8z"/>
<path d="M1254 4389 c-3 -5 5 -13 18 -18 24 -9 38 -6 38 8 0 12 -49 20 -56 10z"/>
<path d="M1325 4390 c-7 -12 2 -30 16 -30 5 0 9 9 9 20 0 21 -15 27 -25 10z"/>
<path d="M1038 4347 c-16 -6 -28 -15 -28 -21 0 -5 3 -7 6 -3 4 3 21 -5 40 -19
28 -22 36 -24 55 -13 13 6 32 12 44 13 13 1 20 8 21 23 1 20 0 21 -22 7 -17
-12 -27 -13 -43 -4 -12 6 -21 15 -21 20 0 12 -17 11 -52 -3z"/>
<path d="M3479 4355 c-1 -3 -2 -10 -3 -17 0 -6 -18 -12 -38 -14 -44 -2 -100
-23 -93 -34 7 -12 -22 -20 -42 -13 -16 6 -17 5 -3 -13 8 -10 20 -23 25 -27 6
-5 1 -6 -10 -2 -36 13 -50 11 -47 -7 5 -29 -7 -21 -21 15 l-14 32 1 -32 c1
-18 4 -33 9 -33 4 0 7 -8 7 -19 0 -10 7 -24 15 -31 18 -15 16 -51 -2 -58 -9
-2 -11 5 -7 25 4 20 1 33 -10 42 -8 7 -18 28 -22 47 -7 36 -37 63 -49 43 -15
-23 -9 -81 8 -90 34 -20 16 -26 -20 -8 -21 10 -44 19 -53 19 -9 0 -22 6 -29
13 -11 10 -13 9 -8 -5 3 -9 -1 -22 -9 -28 -8 -7 -14 -9 -14 -5 0 4 -7 2 -15
-5 -10 -9 -15 -9 -15 -1 0 17 -14 13 -54 -14 -33 -22 -36 -23 -36 -6 0 19 -23
35 -34 24 -3 -3 -1 -14 5 -25 6 -11 9 -20 7 -21 -28 -14 -42 -27 -40 -37 1 -6
-6 -11 -15 -10 -31 4 -39 0 -23 -10 8 -5 12 -11 9 -14 -8 -9 -49 33 -49 50 0
10 8 13 26 10 34 -6 54 2 54 23 0 12 -21 24 -70 41 -40 14 -70 30 -70 38 0 10
-13 12 -52 9 -59 -5 -146 -41 -144 -60 0 -7 -10 -35 -24 -64 -18 -38 -31 -53
-50 -57 -28 -5 -51 -42 -45 -72 2 -11 4 -29 4 -42 1 -30 27 -39 51 -17 18 17
20 16 33 -16 10 -25 11 -38 4 -47 -9 -11 -12 -11 -18 5 -3 10 -5 21 -2 26 2 4
-1 7 -7 7 -19 0 -33 -45 -21 -67 12 -23 -2 -43 -30 -43 -10 0 -21 -12 -27 -29
-6 -16 -20 -34 -31 -41 -12 -6 -21 -17 -21 -25 0 -15 -11 -19 -39 -16 -7 2
-10 -2 -6 -8 4 -7 -4 -11 -19 -11 -32 0 -32 -5 -1 -42 42 -50 30 -120 -20
-112 -74 12 -69 16 -78 -65 -9 -85 -4 -123 17 -115 8 3 17 -3 21 -14 7 -23 -3
-72 -15 -72 -14 0 -42 -52 -45 -85 -3 -32 -30 -85 -44 -85 -21 0 -94 -195 -82
-219 11 -22 5 -139 -7 -154 -6 -7 -7 -18 -3 -25 4 -8 6 -24 4 -36 -3 -13 2
-29 10 -37 18 -18 42 -66 50 -99 4 -14 26 -46 49 -71 40 -42 45 -45 67 -33 13
6 36 10 52 7 20 -3 38 3 55 16 40 31 73 27 87 -9 9 -23 17 -30 39 -30 19 0 28
-5 30 -17 4 -51 3 -71 -4 -99 -6 -24 -2 -44 16 -86 50 -113 66 -234 42 -313
-21 -68 -20 -106 9 -204 14 -47 25 -101 25 -121 0 -20 11 -73 26 -118 14 -45
24 -87 23 -94 -1 -7 1 -26 6 -41 7 -25 10 -27 39 -21 17 4 40 8 51 9 11 1 21
4 23 5 1 1 6 3 11 4 27 3 116 166 113 206 -1 17 7 35 23 50 22 20 24 29 20 85
-4 67 5 88 68 151 24 24 27 34 27 95 0 37 -5 92 -11 121 -17 76 -17 87 -1 143
14 49 68 150 102 190 25 29 82 182 87 233 4 42 3 42 -24 36 -15 -4 -41 -13
-57 -21 -30 -16 -45 -7 -46 27 0 8 -18 43 -40 78 -22 34 -43 75 -46 90 -4 15
-10 32 -14 37 -3 6 -7 21 -8 34 0 13 -10 47 -20 75 -30 79 -45 132 -40 146 8
26 67 -100 83 -177 3 -17 13 -37 21 -44 8 -6 14 -19 14 -28 0 -9 8 -27 17 -41
11 -15 13 -25 6 -27 -8 -3 -7 -12 3 -31 8 -15 14 -37 14 -48 0 -31 24 -48 40
-29 7 8 17 15 22 15 16 0 88 54 88 67 0 6 9 14 19 18 23 7 71 67 71 89 0 8 5
18 10 21 6 4 8 10 5 15 -3 5 -1 11 5 15 19 12 10 42 -20 68 -16 15 -30 34 -30
42 0 21 -5 19 -35 -11 -28 -28 -45 -24 -45 11 0 15 -5 23 -13 20 -13 -6 -37
52 -40 94 -3 39 18 35 38 -8 21 -47 54 -72 84 -64 14 4 21 1 21 -10 0 -16 68
-37 123 -37 28 0 40 -7 61 -35 14 -19 26 -38 25 -42 -3 -14 13 -43 23 -43 6 0
16 7 23 17 10 14 12 12 11 -13 -3 -49 33 -207 65 -292 5 -13 9 -33 9 -46 0
-27 26 -42 34 -20 7 17 28 19 25 2 -4 -37 2 -68 15 -68 22 0 27 28 11 65 -11
27 -18 33 -32 28 -16 -6 -16 -5 -5 9 9 11 13 41 11 86 -2 56 2 75 17 95 30 39
78 120 84 141 3 11 14 20 25 21 11 2 28 6 38 10 12 5 17 3 17 -8 0 -8 11 -38
25 -65 14 -28 25 -61 25 -75 0 -34 18 -44 35 -21 11 16 14 17 19 4 15 -44 27
-137 25 -187 -2 -37 1 -58 9 -61 7 -2 12 -7 12 -12 0 -5 5 -21 12 -37 6 -15
10 -32 9 -37 -5 -21 10 -53 40 -86 l32 -35 -8 30 c-4 17 -11 48 -14 70 -7 40
-36 95 -51 95 -8 0 -21 51 -22 85 0 49 6 85 15 85 6 0 8 -3 5 -6 -3 -3 4 -15
16 -28 43 -46 57 -68 52 -82 -3 -8 -3 -14 0 -14 7 0 34 27 34 34 0 3 10 16 21
27 31 31 21 98 -26 176 -38 63 -38 91 -1 122 29 24 42 -11 22 -60 -5 -10 -1
-19 8 -22 17 -7 21 6 17 56 -2 21 3 30 18 34 12 3 21 9 21 13 0 5 9 12 20 15
25 8 70 74 73 104 1 11 4 21 7 21 3 0 6 23 8 50 2 31 -1 50 -8 50 -6 0 -8 4
-5 10 7 12 -31 101 -48 112 -17 11 -16 29 5 60 19 28 8 43 -22 28 -10 -5 -21
-1 -31 14 -16 20 -15 23 7 51 l24 30 0 -27 c0 -16 5 -28 10 -28 6 0 10 5 10
10 0 6 9 10 20 10 15 0 20 -7 20 -24 0 -15 7 -27 19 -31 17 -5 36 -53 32 -82
-3 -18 36 -16 43 2 10 27 -6 73 -34 100 -27 26 -28 29 -14 51 9 13 15 25 15
28 -5 34 1 46 23 46 21 0 26 6 33 43 14 67 8 142 -17 202 -22 54 -50 82 -70
70 -15 -9 -62 26 -51 39 5 6 12 28 15 50 4 21 9 42 11 47 3 4 42 6 85 4 77 -4
91 0 70 21 -12 12 -1 54 14 54 6 0 17 -9 24 -20 15 -25 32 -18 32 13 1 19 2
20 11 5 10 -18 2 -95 -12 -103 -13 -9 8 -63 40 -104 17 -21 31 -42 31 -45 0
-3 8 -15 17 -26 20 -23 37 -7 22 22 -6 10 -6 18 -1 18 5 0 6 17 2 38 -3 20 -7
41 -7 45 -1 5 -12 21 -24 35 -31 35 -36 76 -8 69 10 -3 21 -1 24 3 3 4 15 6
27 2 13 -3 19 -1 15 5 -11 17 23 55 44 50 29 -8 23 10 -11 29 -20 12 -26 21
-20 29 6 7 7 15 3 18 -3 4 3 7 15 7 11 0 27 -7 36 -15 22 -22 53 -19 51 5 -2
26 -7 31 -47 37 -18 3 -37 8 -43 13 -15 12 -126 51 -159 57 -16 3 -40 9 -54
14 -21 8 -24 7 -19 -10 4 -17 1 -18 -27 -10 -17 5 -49 9 -70 9 -22 0 -47 7
-57 16 -10 9 -39 18 -66 19 -26 1 -75 10 -108 19 -75 20 -109 21 -102 2 5 -11
-3 -14 -34 -11 -21 2 -39 -1 -39 -6 0 -17 -18 -9 -52 21 -18 17 -38 30 -44 30
-7 0 -20 3 -30 7 -13 5 -16 3 -12 -9 6 -13 1 -14 -30 -6 -20 5 -46 9 -57 9
-10 0 -25 5 -32 11 -10 8 -17 8 -25 0 -7 -7 -19 -12 -27 -12 -10 0 -7 6 8 19
20 17 20 20 6 35 -9 9 -32 16 -50 16 -19 0 -37 5 -40 10 -6 10 -64 14 -66 5z
m-379 -189 c0 -3 -4 -8 -10 -11 -5 -3 -10 -1 -10 4 0 6 5 11 10 11 6 0 10 -2
10 -4z m-436 -111 c-9 -14 -21 -25 -26 -25 -5 0 -8 -21 -6 -47 3 -44 5 -48 28
-47 14 0 35 4 48 8 16 5 22 4 22 -8 0 -12 -10 -16 -36 -16 -25 0 -35 -4 -31
-12 21 -51 21 -51 -1 -44 -15 5 -22 2 -27 -13 -3 -12 -4 -25 -1 -30 3 -4 -3
-16 -13 -25 -14 -12 -20 -14 -23 -5 -3 9 -11 7 -30 -5 -18 -12 -28 -14 -33 -6
-5 8 -10 8 -20 0 -11 -9 -12 -7 -8 9 3 12 12 21 20 21 19 0 55 39 47 51 -3 5
3 23 13 39 15 26 15 32 4 39 -18 11 -7 77 14 85 9 3 20 17 25 31 6 15 17 25
30 25 20 0 20 -1 4 -25z m233 -500 c-12 -24 -10 -29 25 -66 45 -47 50 -79 13
-79 -15 0 -39 7 -55 15 -27 14 -33 14 -61 0 -28 -15 -32 -15 -49 0 -19 17 -17
40 11 108 13 31 40 33 45 4 3 -25 8 -29 28 -21 10 4 15 13 11 22 -6 17 12 42
32 42 11 0 12 -4 0 -25z m233 1 c0 -2 -9 -13 -20 -26 -11 -13 -20 -26 -20 -30
0 -4 9 -15 20 -25 11 -10 20 -30 20 -44 0 -21 2 -23 10 -11 9 13 11 13 20 0 7
-11 5 -16 -5 -18 -18 -4 -19 -24 -4 -39 7 -7 13 -25 14 -42 2 -22 -2 -31 -17
-34 -23 -6 -72 39 -61 56 11 18 15 59 6 66 -15 10 -40 55 -46 83 -10 38 36 93
64 78 10 -6 19 -12 19 -14z m-536 -104 c26 -23 36 -40 36 -61 0 -16 7 -36 15
-45 8 -8 15 -21 15 -30 0 -24 20 -30 34 -10 11 15 11 23 0 51 -12 28 -12 32 1
27 8 -4 15 -1 15 5 0 6 4 11 9 11 5 0 15 -24 22 -54 9 -42 17 -57 38 -66 19
-9 26 -9 29 0 3 7 10 6 22 -5 12 -11 20 -13 25 -6 3 6 13 11 21 11 17 0 19
-43 3 -105 -11 -42 -12 -43 -57 -48 -39 -4 -55 1 -95 24 -27 16 -52 29 -56 29
-14 0 -36 -32 -36 -52 0 -10 -4 -17 -10 -16 -32 5 -46 13 -60 34 -8 13 -24 24
-35 24 -25 0 -43 34 -44 85 -1 39 -2 40 -38 43 -21 2 -38 -1 -38 -7 0 -5 -10
-10 -22 -9 -53 2 -69 -3 -79 -26 -9 -19 -16 -22 -38 -17 -33 9 -33 32 0 48 40
19 55 42 58 88 1 6 12 23 26 39 14 16 25 37 25 47 0 13 6 17 24 13 14 -2 31 3
40 11 21 21 34 19 41 -7 4 -13 25 -42 47 -65 33 -34 39 -46 34 -67 -5 -20 -3
-24 9 -20 9 4 15 19 15 43 0 27 3 32 10 21 8 -13 10 -12 10 3 0 9 -4 17 -8 17
-5 0 -21 10 -35 23 -28 24 -47 65 -47 100 1 18 4 15 20 -14 10 -20 35 -50 54
-67z"/>
<path d="M2520 3320 c0 -16 31 -33 41 -23 8 8 7 13 -3 19 -18 12 -38 14 -38 4z"/>
<path d="M924 4263 c-27 -25 -34 -37 -26 -45 8 -8 18 -7 36 6 33 21 39 20 26
-3 -5 -11 -10 -27 -10 -36 0 -20 27 -48 34 -36 3 5 18 11 33 14 24 4 25 4 10
-7 -9 -7 -14 -15 -11 -18 3 -3 -13 -6 -35 -6 -30 -1 -39 3 -35 13 5 13 -49 34
-97 38 -11 1 -19 5 -19 9 0 5 -10 4 -21 -3 -12 -6 -36 -13 -53 -15 -17 -2 -42
-5 -56 -8 -13 -3 -27 -1 -30 4 -3 6 -28 13 -55 16 -27 3 -67 12 -88 19 -33 11
-45 11 -80 -1 -22 -8 -45 -18 -51 -23 -6 -5 -27 -14 -48 -20 -30 -10 -36 -16
-33 -37 2 -18 -2 -24 -14 -23 -33 3 -50 -1 -65 -17 -19 -19 -12 -34 15 -34 10
0 19 -4 19 -10 0 -5 -6 -10 -14 -10 -50 0 -137 -81 -107 -99 7 -5 12 -12 12
-17 -1 -9 2 -10 32 -13 10 -1 -41 -34 -122 -79 -8 -5 -17 -14 -19 -20 -5 -16
91 25 117 49 11 10 29 20 39 22 25 4 75 37 68 44 -3 3 6 12 20 20 30 15 47 18
24 3 -28 -18 1 -24 33 -7 30 16 36 16 69 3 47 -20 52 -29 49 -88 -1 -28 2 -48
9 -48 6 0 10 -25 10 -61 0 -37 -4 -58 -10 -54 -15 10 -12 -31 4 -44 17 -14 3
-69 -38 -145 -14 -27 -26 -57 -26 -67 0 -10 -4 -21 -10 -24 -12 -8 -5 -176 8
-184 19 -13 32 -52 32 -98 0 -26 4 -55 10 -63 6 -9 5 -17 -2 -21 -8 -5 -6 -16
8 -36 10 -15 17 -31 16 -35 -1 -4 3 -20 10 -35 6 -15 11 -31 10 -35 -1 -5 3
-8 8 -8 12 0 12 6 0 49 -5 19 -12 52 -16 75 -3 22 -10 48 -14 57 -10 18 -2 59
11 59 5 0 9 -15 9 -32 1 -18 7 -44 15 -58 8 -14 15 -36 15 -50 0 -14 12 -45
25 -69 18 -32 25 -57 24 -87 -3 -48 5 -61 74 -116 36 -28 55 -36 72 -32 17 4
27 -1 44 -24 11 -16 34 -35 52 -42 24 -10 55 -52 50 -68 -4 -9 34 -65 56 -87
33 -30 43 -31 43 -5 0 26 16 26 31 -1 21 -41 18 -116 -8 -167 -32 -62 -43
-105 -33 -137 2 -5 0 -23 -5 -38 -5 -21 1 -50 26 -115 18 -48 36 -91 39 -97 4
-5 13 -32 21 -59 9 -33 30 -67 61 -101 41 -45 48 -59 53 -108 6 -57 14 -219
20 -412 2 -60 6 -121 8 -135 2 -14 5 -38 6 -53 1 -20 5 -26 13 -21 9 5 9 2 -1
-9 -12 -15 -11 -17 3 -17 16 0 22 -21 10 -33 -11 -10 -13 -67 -3 -73 5 -3 9
-16 9 -29 0 -29 24 -85 61 -141 38 -57 129 -91 129 -48 0 8 -4 14 -9 14 -6 0
-22 16 -37 36 -28 36 -34 86 -15 122 6 12 4 23 -9 39 -16 20 -16 27 -4 74 8
29 10 55 6 58 -5 4 -11 14 -15 24 -5 12 -1 17 13 17 19 0 24 9 21 40 -1 10 11
20 31 25 26 8 33 16 36 43 2 18 -1 39 -6 45 -5 7 -12 21 -16 32 -6 16 -5 18 5
8 33 -33 64 -7 75 64 3 21 13 46 22 56 9 11 18 43 20 79 5 65 12 77 70 117 51
35 60 64 67 217 2 44 10 85 22 110 38 76 54 184 27 184 -7 0 -20 12 -30 28
-27 41 -40 52 -66 52 -46 0 -58 4 -58 19 0 17 -38 46 -48 37 -6 -7 -36 33 -37
49 -4 63 -54 149 -81 138 -17 -6 -94 72 -107 110 -4 9 -11 17 -17 17 -6 0 -8
5 -5 10 3 6 -1 10 -9 10 -8 0 -18 -5 -21 -10 -4 -7 -11 -7 -18 -2 -7 5 -24 12
-39 16 -16 3 -28 11 -28 16 0 6 -4 10 -10 10 -5 0 -10 -6 -10 -14 0 -8 -5 -18
-10 -21 -7 -4 -9 2 -4 19 4 16 2 26 -5 26 -6 0 -11 -4 -11 -8 0 -5 -11 -14
-25 -20 -14 -6 -25 -20 -25 -30 0 -10 -6 -27 -14 -38 -15 -19 -15 -19 -30 1
-13 17 -18 18 -35 7 -19 -11 -23 -9 -40 18 -18 30 -19 44 -6 119 7 44 -2 55
-48 57 -15 1 -30 3 -32 6 -3 2 4 36 15 74 25 85 25 84 0 79 -31 -6 -40 -14
-40 -39 0 -26 -41 -50 -70 -41 -30 9 -45 84 -29 147 7 29 12 62 11 73 -2 23 1
29 50 74 32 29 40 32 53 21 13 -11 18 -10 33 4 20 18 57 21 67 6 3 -5 12 -7
19 -4 14 5 31 -39 21 -55 -7 -12 15 -71 26 -71 10 0 12 14 10 92 -2 67 10 94
73 161 30 31 46 58 46 74 0 33 55 109 91 123 20 9 29 20 29 35 0 25 20 45 70
70 30 16 33 16 22 2 -20 -24 -10 -44 10 -23 9 9 21 16 26 16 17 0 52 37 52 56
-1 18 -1 18 -12 -1 -6 -11 -12 -21 -14 -23 -1 -2 -11 1 -22 7 -18 10 -19 15
-9 46 13 45 4 53 -36 31 l-32 -18 35 31 c29 25 43 30 84 29 40 -1 53 4 68 22
26 32 22 12 -7 -35 -31 -51 -31 -63 0 -60 14 2 25 -1 25 -6 0 -6 5 -7 10 -4 5
3 10 1 10 -6 0 -27 14 4 16 36 2 26 -1 35 -13 35 -12 0 -14 7 -7 38 12 57 9
88 -13 116 -14 17 -21 42 -22 77 0 29 -3 54 -5 56 -2 2 -16 -7 -31 -21 -32
-30 -49 -25 -42 13 7 34 -20 66 -58 69 -28 2 -32 -2 -50 -51 -10 -28 -19 -64
-19 -78 -1 -27 -18 -49 -52 -67 -12 -6 -21 -22 -22 -43 -3 -36 -19 -62 -33
-53 -8 5 -7 44 3 84 2 9 -6 16 -19 18 -13 2 -28 11 -35 21 -7 10 -22 23 -33
29 -24 12 -31 59 -12 82 7 9 30 29 52 45 22 17 42 33 45 37 3 4 23 19 44 33
l39 27 -16 -26 c-18 -26 -11 -41 13 -26 8 5 19 5 26 -1 8 -6 14 -5 17 5 4 9 2
18 -3 21 -6 3 -15 15 -21 27 -7 13 -7 18 -1 14 18 -11 61 16 71 45 5 15 7 30
4 33 -4 3 0 6 8 7 8 0 24 2 36 3 23 3 53 -29 53 -55 0 -18 -49 -59 -70 -59
-20 0 -33 -13 -23 -23 3 -4 14 -2 24 4 16 8 21 5 31 -16 7 -15 25 -33 41 -42
l30 -15 -7 29 c-6 26 -5 27 8 10 14 -18 15 -18 25 2 8 14 8 27 -1 45 -15 34
-2 46 18 17 l16 -22 19 22 c25 29 24 35 -6 55 -19 12 -23 20 -15 34 7 13 4 23
-14 39 -12 12 -25 18 -29 15 -3 -4 -9 5 -12 19 -5 20 -14 26 -42 29 -19 2 -46
-2 -60 -9 -21 -11 -24 -11 -20 1 9 22 -31 7 -53 -21 -18 -23 -18 -53 1 -53 17
0 9 -27 -15 -49 -14 -13 -26 -18 -30 -12 -4 5 -2 12 4 16 14 9 12 25 -3 25 -9
0 -13 11 -11 33 2 46 2 47 20 47 8 0 22 6 29 14 12 12 12 15 -1 20 -17 6 -104
-78 -104 -100 0 -7 -6 -12 -12 -11 -33 1 -48 -4 -48 -17 0 -27 -74 -27 -84 1
-5 13 -1 14 22 10 39 -8 48 1 50 56 2 47 -9 61 -26 32 -7 -14 -12 -14 -45 0
-21 9 -35 20 -32 25 3 6 3 10 -2 11 -54 7 -65 4 -99 -28z"/>
<path d="M1207 4282 c-9 -2 -15 -8 -12 -13 4 -5 -1 -9 -9 -9 -19 0 -21 -11 -4
-28 14 -14 43 0 58 27 11 21 -2 30 -33 23z"/>
<path d="M1405 4139 c-12 -19 5 -23 22 -6 16 16 16 17 1 17 -9 0 -20 -5 -23
-11z"/>
<path d="M2048 4089 c-2 -7 7 -24 20 -39 23 -27 27 -27 61 -16 25 9 37 20 39
36 4 21 1 23 -41 18 -24 -3 -51 -1 -60 3 -10 6 -17 5 -19 -2z"/>
<path d="M2281 3893 c-31 -27 -35 -72 -9 -95 24 -21 33 -49 15 -45 -7 1 -11
-6 -9 -15 2 -10 -2 -18 -7 -18 -6 0 -8 -7 -5 -15 4 -8 1 -22 -6 -30 -11 -14
-10 -14 16 -4 16 6 38 12 49 14 11 1 24 3 28 4 5 0 6 5 2 10 -3 5 0 13 5 16 8
5 7 12 -3 23 -29 33 -54 99 -45 116 6 11 5 16 -3 16 -6 0 -9 8 -6 20 6 24 5
25 -22 3z"/>
<path d="M2220 3797 c0 -8 -7 -18 -16 -21 -8 -3 -13 -10 -9 -16 3 -5 1 -18 -4
-29 -13 -24 4 -33 37 -18 14 7 23 20 24 39 0 15 1 34 2 40 1 7 -7 14 -16 16
-11 2 -18 -3 -18 -11z"/>
<path d="M15 3790 c-3 -5 -2 -10 4 -10 5 0 13 5 16 10 3 6 2 10 -4 10 -5 0
-13 -4 -16 -10z"/>
<path d="M4297 2954 c-10 -10 -9 -84 2 -84 5 0 11 12 14 27 6 30 -5 68 -16 57z"/>
<path d="M933 2877 c-15 -24 -11 -42 4 -20 14 21 16 21 49 6 24 -12 34 -23 34
-40 0 -19 5 -23 29 -23 33 0 51 17 27 26 -8 3 -18 14 -21 24 -9 28 -108 50
-122 27z"/>
<path d="M1110 2784 c0 -13 -3 -23 -7 -21 -5 1 -8 -2 -8 -8 0 -5 6 -9 13 -9 6
1 12 -3 12 -8 0 -5 7 -2 16 6 8 9 19 14 24 11 14 -9 23 15 11 29 -7 8 -23 16
-36 19 -21 3 -25 0 -25 -19z"/>
<path d="M4319 2758 c-1 -7 -1 -16 0 -20 0 -4 -4 -19 -9 -33 -7 -18 -7 -33 1
-46 6 -11 12 -30 14 -41 6 -28 15 -36 15 -12 1 16 4 15 25 -9 26 -29 25 -58
-1 -36 -19 15 -19 -9 0 -45 11 -21 15 -24 24 -13 8 10 8 17 1 24 -8 8 -8 13 0
17 6 4 13 -4 17 -19 5 -20 0 -31 -20 -50 -14 -13 -26 -30 -26 -37 0 -9 3 -9
12 0 17 17 29 15 22 -3 -4 -8 0 -22 7 -31 12 -14 14 -14 20 3 11 27 10 111 -1
118 -5 3 -10 17 -10 29 0 13 -7 29 -15 36 -8 7 -12 16 -10 21 3 4 -6 16 -20
25 -21 14 -26 24 -24 53 3 57 0 81 -11 81 -5 0 -11 -6 -11 -12z"/>
<path d="M4265 2408 c-4 -13 -14 -30 -21 -38 -7 -8 -22 -25 -33 -37 -11 -12
-25 -31 -31 -43 -6 -11 -15 -18 -20 -15 -12 7 -17 -34 -9 -70 4 -16 10 -42 13
-57 4 -20 11 -25 25 -21 10 3 22 0 25 -6 14 -22 45 -12 52 17 3 15 8 34 11 42
3 8 8 24 10 35 2 11 8 24 12 28 5 5 5 22 -1 39 -7 21 -7 37 1 54 16 36 14 58
-8 78 -18 17 -20 16 -26 -6z"/>
<path d="M3910 2371 c0 -5 7 -14 15 -21 8 -7 15 -18 15 -25 0 -7 7 -18 14 -25
15 -12 43 -86 52 -137 3 -15 16 -45 30 -65 34 -53 51 -50 56 11 1 17 6 31 10
31 4 0 -6 15 -23 32 -16 18 -27 39 -24 46 2 7 -11 30 -30 51 -19 21 -35 43
-35 49 0 9 -63 62 -74 62 -3 0 -6 -4 -6 -9z"/>
<path d="M4405 2270 c-4 -6 -21 -10 -38 -8 -28 3 -32 0 -34 -22 -1 -16 0 -18
4 -7 3 13 10 16 21 12 10 -4 22 -9 29 -12 6 -2 17 5 23 17 12 22 7 40 -5 20z"/>
<path d="M4523 2213 c-18 -6 -16 -32 2 -39 8 -4 15 -17 15 -30 0 -19 9 -28 40
-41 48 -21 66 -58 47 -97 -6 -11 -5 -16 1 -13 5 4 18 0 28 -8 27 -20 52 -18
64 5 15 28 24 25 45 -14 16 -29 51 -53 62 -42 1 1 -9 18 -23 37 -17 23 -23 41
-19 58 4 15 0 30 -12 43 -52 58 -106 106 -123 111 -20 5 -44 -11 -53 -35 -7
-19 -28 3 -30 31 -2 24 -24 41 -44 34z"/>
<path d="M4316 2183 c-2 -16 -3 -46 -1 -68 2 -22 4 -44 4 -48 1 -5 6 -5 12 -2
6 4 8 22 6 41 -3 19 -1 34 4 34 5 0 9 -10 9 -22 0 -13 4 -30 10 -38 17 -26 24
-1 12 48 -6 28 -7 48 -1 50 11 4 12 32 1 32 -4 0 -13 -5 -20 -12 -9 -9 -12 -9
-12 0 0 24 -19 11 -24 -15z"/>
<path d="M4086 2045 c-3 -9 0 -15 9 -15 8 0 18 -7 23 -16 5 -9 31 -20 58 -25
27 -5 50 -14 52 -19 2 -6 10 -6 20 -1 9 5 41 5 70 1 29 -3 55 -3 58 2 3 4 12
8 20 8 14 0 13 -2 0 -16 -9 -8 -16 -20 -16 -26 0 -6 1 -9 3 -7 1 2 14 18 29
34 l27 30 -92 0 c-87 -1 -139 11 -138 31 1 5 -2 9 -6 9 -5 0 -14 4 -22 9 -10
6 -16 5 -19 -2 -5 -17 -29 -15 -36 3 -3 8 -12 15 -20 15 -7 0 -16 -7 -20 -15z"/>
<path d="M4683 1908 c-4 -90 -30 -191 -48 -185 -5 2 -23 22 -38 45 -27 41 -28
43 -13 74 21 42 20 51 -5 45 -13 -4 -28 1 -37 10 -13 13 -17 13 -21 2 -2 -8
-10 -17 -17 -22 -7 -4 -18 -23 -24 -42 -12 -37 -27 -45 -36 -20 -7 17 -34 21
-34 5 0 -17 -42 -70 -51 -64 -4 2 -10 -6 -14 -18 -13 -49 -31 -71 -75 -94 -73
-38 -89 -56 -93 -108 -2 -26 -6 -49 -9 -51 -3 -3 -2 -24 1 -48 9 -60 5 -134
-10 -169 -11 -27 -10 -32 6 -44 16 -12 22 -11 40 6 12 11 33 20 48 20 14 0 38
11 53 25 15 14 35 25 45 25 10 0 20 4 23 9 9 13 56 4 77 -15 10 -9 19 -28 19
-41 0 -28 7 -29 29 -2 17 21 17 21 17 1 0 -12 -5 -18 -11 -14 -5 3 -4 -1 3
-10 10 -13 10 -17 -3 -22 -8 -3 -15 -11 -15 -17 0 -8 4 -8 15 1 13 11 15 7 15
-22 0 -27 6 -38 25 -48 20 -11 27 -11 40 0 12 10 15 10 15 -5 0 -14 5 -13 30
8 16 14 33 27 38 29 18 7 133 218 125 230 -2 5 -1 8 4 8 7 0 10 16 15 95 2 28
-24 115 -35 115 -4 0 -5 5 -2 10 4 6 -3 29 -15 51 -11 23 -23 66 -26 97 -2 31
-10 60 -17 64 -7 3 -14 24 -15 45 -3 36 -18 69 -19 41z"/>
<path d="M3121 1840 c-13 -25 -35 -55 -49 -66 -23 -19 -27 -30 -29 -85 -1 -35
-6 -84 -11 -109 -9 -52 3 -90 29 -90 24 0 34 21 48 100 17 100 21 122 32 165
15 64 16 69 9 100 l-6 30 -23 -45z"/>
<path d="M5058 1174 c-3 -31 -10 -59 -17 -63 -7 -5 -12 -14 -11 -22 5 -30 -1
-39 -20 -36 -13 2 -46 -22 -100 -72 -44 -42 -80 -79 -80 -83 0 -21 41 -4 69
27 17 19 34 35 39 35 4 0 21 17 37 39 16 21 35 37 41 34 6 -2 29 18 51 44 48
58 61 79 43 68 -16 -10 -30 12 -30 47 0 51 -18 37 -22 -18z"/>
<path d="M4555 1045 c-16 -55 -8 -77 21 -57 12 8 34 46 34 59 0 12 -52 10 -55
-2z"/>
</g>
</svg>
