<?xml version="1.0" standalone="no"?>
<!DOCTYPE svg PUBLIC "-//W3C//DTD SVG 20010904//EN"
 "http://www.w3.org/TR/2001/REC-SVG-20010904/DTD/svg10.dtd">
<svg version="1.0" xmlns="http://www.w3.org/2000/svg"
 width="270.000000pt" height="270.000000pt" viewBox="0 0 270.000000 270.000000"
 preserveAspectRatio="xMidYMid meet">
<metadata>
Created by potrace 1.11, written by Peter Selinger 2001-2013
</metadata>
<g transform="translate(0.000000,270.000000) scale(0.100000,-0.100000)"
fill="#000000" stroke="none">
<path d="M784 2450 c-18 -4 -42 -17 -55 -28 -22 -22 -22 -22 -2 -22 23 0 132
38 148 52 11 10 -47 9 -91 -2z"/>
<path d="M973 2451 c-51 -4 -76 -11 -85 -23 -7 -9 -24 -19 -38 -21 l-25 -4 26
-2 c32 -1 57 -28 65 -69 5 -25 3 -32 -10 -32 -11 0 -16 -9 -16 -33 0 -60 40
-76 65 -27 9 18 26 32 43 36 15 4 36 13 47 20 11 8 34 14 52 14 18 0 32 3 32
8 -1 4 -1 16 0 27 1 14 4 16 9 8 5 -9 17 1 35 29 15 23 27 47 27 54 0 24 -66
28 -227 15z"/>
<path d="M691 2431 c-8 -5 -10 -14 -6 -21 6 -9 10 -8 17 4 12 21 7 28 -11 17z"/>
<path d="M640 2401 c0 -5 5 -13 10 -16 6 -3 10 -2 10 4 0 5 -4 13 -10 16 -5 3
-10 2 -10 -4z"/>
<path d="M1460 2399 c0 -5 5 -7 10 -4 6 3 10 8 10 11 0 2 -4 4 -10 4 -5 0 -10
-5 -10 -11z"/>
<path d="M2086 2391 c-4 -6 -22 -11 -41 -11 -20 0 -35 -6 -39 -15 -3 -8 -9
-14 -13 -13 -4 1 -21 -5 -36 -12 -21 -10 -25 -16 -14 -20 11 -4 12 -11 5 -30
l-11 -25 -8 31 c-10 34 -35 61 -46 50 -4 -4 -2 -15 3 -24 10 -15 4 -17 -57
-19 -38 -1 -77 -7 -87 -12 -13 -7 -23 -6 -31 2 -10 9 -11 8 -6 -5 5 -13 2 -18
-9 -18 -9 0 -16 -4 -16 -10 0 -18 -49 -11 -59 8 -9 16 -6 18 22 15 l32 -3 -40
19 c-87 42 -126 34 -208 -43 -46 -43 -54 -56 -43 -65 7 -6 20 -9 29 -5 10 3
18 -2 22 -15 8 -27 19 -26 38 3 12 17 13 26 4 35 -8 8 -3 19 21 43 33 33 55
32 34 -2 -7 -11 -12 -24 -12 -29 0 -11 68 -20 74 -9 3 5 3 3 2 -4 -1 -7 -12
-14 -24 -16 -12 -2 -22 -10 -22 -18 0 -8 -6 -14 -14 -14 -8 0 -16 -8 -18 -17
-3 -14 -14 -18 -53 -19 -62 -2 -93 -14 -124 -48 -14 -14 -30 -26 -37 -26 -8 0
-10 -12 -7 -41 l6 -41 -40 6 -40 7 -1 -40 c-2 -36 1 -41 23 -47 34 -8 54 1 65
31 5 14 14 25 20 25 5 0 10 6 10 14 0 8 15 17 34 20 28 5 39 2 60 -19 14 -14
30 -25 37 -25 6 0 0 12 -15 26 -28 29 -33 44 -13 44 21 -1 64 -44 82 -83 13
-27 20 -34 26 -26 4 8 4 19 -2 25 -6 8 -3 13 12 17 16 4 23 -1 31 -24 10 -29
27 -35 81 -31 13 1 17 -6 17 -37 0 -22 -5 -41 -13 -44 -20 -7 -95 1 -118 14
-21 11 -31 5 -42 -26 -2 -5 -17 -1 -33 11 -16 11 -37 23 -46 27 -11 4 -18 17
-18 31 0 23 -3 24 -37 20 -21 -3 -55 -10 -76 -16 -20 -6 -40 -8 -44 -4 -10 10
-63 -45 -63 -66 0 -9 -11 -25 -24 -33 -32 -21 -48 -65 -51 -143 -3 -52 1 -71
22 -108 35 -63 57 -75 113 -63 91 20 100 21 100 11 0 -6 12 -17 28 -24 24 -12
27 -18 24 -54 -2 -27 2 -45 12 -53 23 -19 41 -113 27 -139 -15 -28 -14 -64 3
-104 7 -18 18 -51 24 -73 28 -105 34 -115 74 -115 30 0 42 7 72 42 20 23 36
49 36 58 0 9 9 25 20 35 14 13 18 25 13 43 -5 20 2 31 32 59 29 26 36 39 31
56 -4 12 -9 45 -13 72 -5 48 -3 53 38 104 63 77 66 82 84 123 l15 38 -45 -7
c-41 -5 -45 -4 -54 20 -6 15 -16 25 -23 23 -7 -1 -10 -1 -6 1 3 2 -4 25 -18
51 -13 26 -31 65 -41 87 -9 22 -20 48 -24 57 -12 27 17 11 37 -20 29 -44 84
-155 84 -169 0 -18 35 -16 50 2 7 8 16 12 21 10 4 -3 13 4 19 15 6 11 17 20
25 20 7 0 23 14 35 31 21 29 21 31 5 49 -12 13 -25 17 -44 14 -22 -5 -32 0
-53 28 -18 24 -24 39 -17 49 7 11 13 9 34 -13 14 -16 34 -28 45 -28 10 0 22
-4 25 -10 3 -5 30 -10 58 -10 48 0 54 -3 71 -31 10 -17 24 -28 31 -25 8 3 15
-7 19 -26 3 -17 18 -57 33 -90 29 -66 46 -65 50 3 2 33 11 48 49 85 26 24 52
44 58 44 12 0 56 -60 56 -77 0 -6 9 -9 19 -6 15 4 21 -2 26 -27 4 -20 12 -30
20 -26 7 2 26 -6 40 -20 26 -24 28 -24 46 -8 22 19 18 44 -12 83 -11 13 -19
32 -19 43 0 22 29 36 40 18 4 -7 9 -8 11 -4 2 5 21 17 41 26 32 15 37 23 43
62 6 37 3 49 -15 74 -13 17 -20 38 -17 46 4 10 1 16 -7 16 -7 0 -19 6 -25 14
-16 19 11 40 41 30 26 -8 68 -49 68 -67 0 -8 3 -8 12 1 9 9 7 16 -9 30 -24 21
-21 70 6 80 23 8 31 23 31 55 0 40 -35 87 -66 87 -32 0 -40 24 -20 55 12 19
25 25 51 25 l35 0 0 53 0 53 -125 20 c-69 11 -125 16 -125 11 0 -5 -23 -6 -52
-2 -29 3 -93 8 -141 11 -81 5 -87 7 -82 25 5 15 1 19 -17 19 -13 0 -33 3 -44
6 -12 3 -25 1 -28 -5z m-451 -160 c3 -5 1 -12 -5 -16 -5 -3 -10 1 -10 9 0 18
6 21 15 7z m715 -122 c-7 -11 -14 -18 -17 -15 -3 3 0 12 7 21 18 21 23 19 10
-6z m-648 -94 c-2 -14 0 -25 5 -25 6 0 20 -9 33 -20 13 -11 18 -20 12 -20 -7
0 -12 -8 -12 -17 0 -15 -2 -15 -9 -4 -7 10 -29 15 -70 15 -34 1 -61 6 -62 11
-5 36 26 81 45 66 7 -6 18 -4 30 5 28 20 34 18 28 -11z m154 4 c3 -6 1 -15 -7
-20 -11 -6 -10 -12 6 -29 24 -26 32 -90 11 -90 -29 0 -46 13 -46 35 0 13 -8
37 -17 53 -14 25 -15 32 -4 46 15 18 47 21 57 5z m74 -14 c0 -8 -4 -17 -10
-20 -6 -4 -10 5 -10 20 0 15 4 24 10 20 6 -3 10 -12 10 -20z m628 -22 c-10 -2
-26 -2 -35 0 -10 3 -2 5 17 5 19 0 27 -2 18 -5z m-71 -19 c-3 -3 -12 -4 -19
-1 -8 3 -5 6 6 6 11 1 17 -2 13 -5z m-163 -22 c3 -5 -8 -6 -25 -4 -16 2 -29 6
-29 8 0 8 49 4 54 -4z m-44 -18 c0 -2 -7 -4 -15 -4 -8 0 -15 4 -15 10 0 5 7 7
15 4 8 -4 15 -8 15 -10z m-546 -40 c3 -8 2 -12 -4 -9 -6 3 -10 10 -10 16 0 14
7 11 14 -7z m393 -76 c-3 -8 -6 -5 -6 6 -1 11 2 17 5 13 3 -3 4 -12 1 -19z
m-594 -35 c-7 -2 -19 -2 -25 0 -7 3 -2 5 12 5 14 0 19 -2 13 -5z m148 -426
c-7 -7 -12 -5 -17 7 -4 11 -1 21 7 27 17 11 26 -18 10 -34z m-41 -53 c0 -8 -4
-12 -10 -9 -5 3 -10 10 -10 16 0 5 5 9 10 9 6 0 10 -7 10 -16z"/>
<path d="M460 2380 c0 -5 7 -10 16 -10 8 0 12 5 9 10 -3 6 -10 10 -16 10 -5 0
-9 -4 -9 -10z"/>
<path d="M505 2380 c-3 -5 -1 -10 4 -10 6 0 11 5 11 10 0 6 -2 10 -4 10 -3 0
-8 -4 -11 -10z"/>
<path d="M1782 2368 c-15 -15 -15 -35 0 -44 7 -5 8 -3 4 5 -5 7 0 21 10 32 18
20 6 27 -14 7z"/>
<path d="M369 2353 c-13 -15 -12 -15 10 -3 21 11 23 10 18 -4 -4 -9 -1 -16 6
-17 7 0 3 -4 -8 -9 -14 -6 -4 -9 37 -9 74 -1 91 22 26 34 -13 3 -24 9 -26 15
-6 16 -48 12 -63 -7z"/>
<path d="M630 2335 c0 -7 14 -10 39 -8 32 2 42 -1 55 -22 20 -30 20 -36 2 -29
-19 7 -30 -14 -16 -31 10 -12 14 -12 26 0 8 7 14 19 14 25 0 7 8 9 20 5 29 -9
25 9 -10 42 -24 22 -40 28 -80 29 -32 1 -50 -3 -50 -11z"/>
<path d="M30 2321 c-22 -6 -25 -12 -25 -56 0 -42 3 -50 20 -53 40 -8 67 -44
64 -87 -1 -22 1 -48 6 -58 5 -12 2 -22 -7 -30 -56 -47 -88 -158 -53 -187 8 -7
16 -24 16 -39 1 -17 3 -20 6 -8 2 9 9 17 14 17 5 0 12 -8 15 -17 3 -10 16 -42
30 -71 13 -29 24 -61 24 -72 0 -20 52 -55 64 -43 3 4 6 1 6 -5 0 -7 11 -9 30
-5 23 4 30 2 30 -10 0 -15 56 -53 71 -49 4 1 5 -7 2 -17 -2 -10 1 -21 9 -23
10 -4 12 5 9 38 -3 39 -6 44 -28 44 -26 0 -27 12 -7 64 9 23 -13 20 -26 -4
-15 -29 -58 -26 -71 4 -28 60 22 145 84 145 18 0 43 0 56 0 25 1 44 -16 35
-31 -3 -4 0 -16 5 -25 8 -14 10 -9 11 25 0 33 6 48 26 67 15 14 31 25 35 25 5
0 9 7 9 14 0 18 60 76 78 76 6 0 12 7 12 15 0 21 82 57 93 41 6 -7 7 -4 3 7
-3 10 -6 23 -6 29 0 6 -11 8 -27 4 l-28 -7 25 20 c13 11 37 19 52 19 31 -1 88
20 88 33 0 5 -7 9 -15 9 -8 0 -17 14 -21 35 -5 30 -9 33 -25 24 -16 -8 -21 -5
-29 16 -14 38 -50 30 -72 -15 -10 -19 -24 -39 -31 -45 -8 -5 -19 -20 -26 -32
-16 -31 -35 -29 -29 2 4 20 -1 26 -32 39 -53 21 -56 40 -12 76 20 16 42 30 48
30 6 0 17 7 24 15 6 8 17 13 23 12 15 -3 15 25 0 41 -15 15 -23 15 -23 1 0
-23 -32 -36 -68 -28 -20 4 -43 4 -52 -1 -18 -10 -61 -2 -71 12 -3 5 -57 10
-120 12 -63 2 -132 6 -154 9 -22 3 -51 3 -65 -2z m290 -46 c-13 -16 -40 -20
-40 -7 0 14 12 22 33 22 16 0 17 -3 7 -15z m2 -47 c-6 -6 -16 -7 -22 -3 -9 6
-9 9 1 16 17 10 34 0 21 -13z m48 -133 c0 -8 -2 -15 -4 -15 -2 0 -6 7 -10 15
-3 8 -1 15 4 15 6 0 10 -7 10 -15z m100 -59 c0 -8 7 -17 16 -20 9 -3 14 -12
11 -20 -4 -10 0 -12 14 -9 33 9 21 -12 -14 -25 -46 -17 -48 -16 -42 16 l6 27
-25 -30 c-31 -36 -43 -28 -22 14 20 37 20 42 1 35 -15 -6 -21 7 -8 19 12 13
63 7 63 -7z"/>
<path d="M620 2295 c-7 -8 -8 -15 -2 -15 5 0 15 7 22 15 7 8 8 15 2 15 -5 0
-15 -7 -22 -15z"/>
<path d="M1140 2260 c0 -5 11 -10 24 -10 14 0 28 5 31 10 4 6 -7 10 -24 10
-17 0 -31 -4 -31 -10z"/>
<path d="M1275 2160 c-4 -6 -1 -17 5 -25 6 -8 9 -18 7 -23 -3 -4 -2 -14 3 -22
12 -19 36 2 26 22 -24 46 -34 59 -41 48z"/>
<path d="M1230 2115 c0 -8 4 -15 9 -15 5 0 11 7 15 15 3 9 0 15 -9 15 -8 0
-15 -7 -15 -15z"/>
<path d="M744 2059 c-7 -12 13 -29 35 -29 11 0 10 5 -4 20 -21 23 -22 23 -31
9z"/>
<path d="M640 1989 c0 -5 5 -7 10 -4 6 3 10 8 10 11 0 2 -4 4 -10 4 -5 0 -10
-5 -10 -11z"/>
<path d="M432 1674 c10 -10 20 -15 24 -12 3 4 -5 12 -18 18 -22 12 -22 12 -6
-6z"/>
<path d="M495 1640 c3 -5 10 -10 16 -10 5 0 9 5 9 10 0 6 -7 10 -16 10 -8 0
-12 -4 -9 -10z"/>
<path d="M2651 1608 c1 -38 12 -58 27 -49 11 7 11 9 -1 14 -10 3 -13 13 -10
25 2 11 0 23 -6 26 -7 5 -11 -2 -10 -16z"/>
<path d="M452 1512 c-23 -21 -30 -34 -25 -50 3 -13 -4 -39 -16 -62 -17 -33
-19 -45 -10 -62 8 -15 8 -19 0 -14 -20 13 -12 -19 23 -90 20 -42 43 -75 59
-83 37 -20 45 -50 52 -201 4 -74 11 -140 15 -145 5 -6 14 -32 20 -59 12 -54
36 -96 55 -96 15 0 30 65 19 82 -12 20 -10 78 4 78 6 0 12 6 12 14 0 7 10 16
21 19 18 5 20 11 15 33 -6 21 -4 25 8 21 21 -8 52 38 63 93 7 37 14 48 40 60
35 16 53 52 53 107 0 20 10 49 25 71 14 20 25 42 25 49 0 15 -46 48 -80 57
-62 18 -87 35 -110 81 -9 17 -27 32 -45 37 -17 4 -38 20 -49 36 -14 21 -28 29
-54 30 -19 2 -40 6 -46 10 -24 15 -44 10 -74 -16z m-12 -224 c0 -5 -4 -8 -10
-8 -5 0 -10 10 -10 23 0 18 2 19 10 7 5 -8 10 -18 10 -22z"/>
<path d="M2440 1451 c0 -18 19 -51 29 -51 13 0 2 37 -15 51 -11 9 -14 9 -14 0z"/>
<path d="M2582 1423 c-43 -37 -51 -60 -30 -81 21 -21 54 -14 68 16 14 28 20
91 9 98 -3 2 -24 -13 -47 -33z"/>
<path d="M2391 1445 c14 -37 86 -145 96 -145 18 0 16 15 -4 48 -18 29 -98 113
-92 97z"/>
<path d="M2655 1350 c-4 -7 -1 -16 6 -21 17 -10 26 8 11 23 -6 6 -12 6 -17 -2z"/>
<path d="M2507 1279 c7 -7 15 -10 18 -7 3 3 -2 9 -12 12 -14 6 -15 5 -6 -5z"/>
<path d="M2550 1270 c0 -5 7 -10 16 -10 8 0 12 5 9 10 -3 6 -10 10 -16 10 -5
0 -9 -4 -9 -10z"/>
<path d="M1828 1165 c-16 -13 -28 -33 -28 -44 0 -11 -5 -31 -11 -45 -9 -20 -9
-29 1 -41 15 -18 40 -3 40 25 0 10 7 34 16 55 8 20 14 45 12 55 -3 17 -5 17
-30 -5z"/>
<path d="M2690 1138 c0 -6 -3 -8 -7 -5 -3 4 -12 -2 -20 -13 -8 -11 -34 -28
-58 -39 -40 -18 -45 -24 -46 -53 -1 -18 -3 -57 -4 -86 -4 -60 -13 -57 92 -24
l53 17 0 108 c0 59 -2 107 -5 107 -3 0 -5 -5 -5 -12z"/>
<path d="M645 640 c-3 -5 3 -14 14 -20 26 -13 35 2 11 18 -11 7 -21 8 -25 2z"/>
<path d="M825 472 c-11 -2 -31 -15 -45 -29 -18 -19 -21 -26 -11 -32 9 -6 6
-10 -12 -15 -14 -3 -29 -15 -32 -27 -5 -16 -13 -19 -33 -15 -69 13 -162 18
-162 8 0 -16 -88 -26 -126 -14 -19 5 -36 6 -39 2 -3 -5 -30 -12 -60 -15 -31
-4 -58 -11 -61 -16 -3 -5 -16 -9 -30 -9 -15 0 -24 -6 -24 -15 0 -16 14 -19 74
-15 26 1 36 -2 32 -9 -4 -6 -1 -11 6 -11 8 0 23 -7 34 -16 18 -15 18 -15 -8
-10 -33 7 -47 -9 -15 -18 12 -3 509 -6 1103 -6 948 0 1087 2 1125 15 66 24
139 58 139 65 0 8 -60 20 -105 20 l-30 1 34 14 c18 8 41 15 51 15 10 0 28 8
40 18 22 18 21 18 -86 52 -60 19 -116 34 -124 32 -55 -9 -230 -6 -264 6 -27 9
-42 10 -51 2 -7 -6 -37 -11 -66 -12 -31 -1 -67 -10 -84 -20 -33 -20 -70 -23
-80 -8 -3 6 -26 10 -50 10 -24 0 -47 4 -50 10 -10 16 -49 12 -108 -10 -29 -11
-64 -20 -78 -20 -303 -2 -390 -14 -471 -68 -27 -17 -56 -26 -100 -29 -56 -3
-71 -10 -81 -37 -4 -13 -150 7 -154 21 -3 6 10 19 26 28 38 19 38 24 5 77 -22
35 -25 45 -15 61 15 22 13 25 -14 19z m285 -192 c21 -7 19 -8 -17 -9 -24 -1
-43 4 -43 9 0 12 24 12 60 0z"/>
</g>
</svg>
